<!DOCTYPE svg PUBLIC "-//W3C//DTD SVG 1.1//EN" "http://www.w3.org/Graphics/SVG/1.1/DTD/svg11.dtd"><svg xmlns:xlink="http://www.w3.org/1999/xlink" xmlns="http://www.w3.org/2000/svg" width="467.16" height="258.685" viewBox="0 0 350.37 194.014" xml:space="preserve" color-interpolation-filters="sRGB" class="st10" version="1.1">
 <style type="text/css" xml:space="preserve"><![CDATA[
	
		.st1 {fill:none;stroke:none;stroke-linecap:butt;stroke-width:0.5px}
		.st2 {fill:#ffffff;stroke:none;stroke-linecap:butt;stroke-width:7.2px}
		.st3 {fill:#000000;font-family:Arial,Helvetica,sans-serif;font-size:0.666664em}
		.st4 {fill:#b3b3b3;fill-opacity:0.85;stroke:#000000;stroke-linecap:butt;stroke-width:0.5px}
		.st5 {font-size:1em}
		.st6 {fill:none;stroke:#000000;stroke-linecap:butt;stroke-width:0.5px}
		.st7 {stroke:#000000;stroke-linecap:butt;stroke-width:0.5px}
		.st8 {fill:#000000;font-family:Arial,Helvetica,sans-serif;font-size:0.666664em;font-style:italic}
		.st9 {font-size:1em;font-style:normal}
		.st10 {fill:none;fill-rule:evenodd;font-size:12px;overflow:visible;stroke-linecap:square;stroke-miterlimit:3}]]></style>
 <g xmlns:v="http://schemas.microsoft.com/visio/2003/SVGExtensions/">
  <title>Page-1</title>
  <g id="shape11-1" transform="translate(0.5,-0.5)">
   <title>Sheet.11</title>
   <desc>
    Program Status Register
   </desc>
   <rect x="0" y="182.675" width="96.378" height="11.3386" class="st1" />
   <rect x="7.78876" y="183.544" width="87.5893" height="9.59985" class="st2" />
   <text x="7.79" y="190.74" class="st3">
    Program Status Register
   </text>
  </g>
  <g id="shape15-5" transform="translate(99.0039,-34.5157)">
   <title>Sheet.15</title>
   <desc>
    R13 (SP)
   </desc>
   <rect x="0" y="182.675" width="79.3701" height="11.3386" class="st4" />
   <rect x="23.2361" y="183.544" width="32.8983" height="9.59985" class="st2" />
   <text x="23.24" y="190.74" class="st3">
    R
    <tspan class="st5">
     13 
    </tspan>
    <tspan class="st5">
     (
    </tspan>
    <tspan class="st5">
     SP
    </tspan>
    <tspan class="st5">
     )
    </tspan>
   </text>
  </g>
  <g id="shape16-13" transform="translate(99.0039,-23.1772)">
   <title>Sheet.16</title>
   <desc>
    R14 (LR)
   </desc>
   <rect x="0" y="182.675" width="79.3701" height="11.3386" class="st6" />
   <rect x="23.4586" y="183.544" width="32.4533" height="9.59985" class="st2" />
   <text x="23.46" y="190.74" class="st3">
    R
    <tspan class="st5">
     14 
    </tspan>
    <tspan class="st5">
     (
    </tspan>
    <tspan class="st5">
     LR
    </tspan>
    <tspan class="st5">
     )
    </tspan>
   </text>
  </g>
  <g id="shape17-21" transform="translate(99.0039,-11.8386)">
   <title>Sheet.17</title>
   <desc>
    R15 (PC)
   </desc>
   <rect x="0" y="182.675" width="79.3701" height="11.3386" class="st6" />
   <rect x="23.0153" y="183.544" width="33.3399" height="9.59985" class="st2" />
   <text x="23.02" y="190.74" class="st3">
    R
    <tspan class="st5">
     15 
    </tspan>
    <tspan class="st5">
     (
    </tspan>
    <tspan class="st5">
     PC
    </tspan>
    <tspan class="st5">
     )
    </tspan>
   </text>
  </g>
  <g id="shape18-29" transform="translate(99.0039,-125.224)">
   <title>Sheet.18</title>
   <desc>
    R5
   </desc>
   <rect x="0" y="182.675" width="79.3701" height="11.3386" class="st6" />
   <rect x="34.5718" y="183.544" width="10.2266" height="9.59985" class="st2" />
   <text x="34.57" y="190.74" class="st3">
    R
    <tspan class="st5">
     5
    </tspan>
   </text>
  </g>
  <g id="shape19-34" transform="translate(99.0039,-113.886)">
   <title>Sheet.19</title>
   <desc>
    R6
   </desc>
   <rect x="0" y="182.675" width="79.3701" height="11.3386" class="st6" />
   <rect x="34.5718" y="183.544" width="10.2266" height="9.59985" class="st2" />
   <text x="34.57" y="190.74" class="st3">
    R
    <tspan class="st5">
     6
    </tspan>
   </text>
  </g>
  <g id="shape20-39" transform="translate(99.0039,-102.547)">
   <title>Sheet.20</title>
   <desc>
    R7
   </desc>
   <rect x="0" y="182.675" width="79.3701" height="11.3386" class="st6" />
   <rect x="34.5718" y="183.544" width="10.2266" height="9.59985" class="st2" />
   <text x="34.57" y="190.74" class="st3">
    R
    <tspan class="st5">
     7
    </tspan>
   </text>
  </g>
  <g id="shape21-44" transform="translate(99.0039,-181.917)">
   <title>Sheet.21</title>
   <desc>
    R0
   </desc>
   <rect x="0" y="182.675" width="79.3701" height="11.3386" class="st6" />
   <rect x="34.5718" y="183.544" width="10.2266" height="9.59985" class="st2" />
   <text x="34.57" y="190.74" class="st3">
    R
    <tspan class="st5">
     0
    </tspan>
   </text>
  </g>
  <g id="shape22-49" transform="translate(99.0039,-170.579)">
   <title>Sheet.22</title>
   <desc>
    R1
   </desc>
   <rect x="0" y="182.675" width="79.3701" height="11.3386" class="st6" />
   <rect x="34.5718" y="183.544" width="10.2266" height="9.59985" class="st2" />
   <text x="34.57" y="190.74" class="st3">
    R
    <tspan class="st5">
     1
    </tspan>
   </text>
  </g>
  <g id="shape23-54" transform="translate(99.0039,-147.902)">
   <title>Sheet.23</title>
   <desc>
    R3
   </desc>
   <rect x="0" y="182.675" width="79.3701" height="11.3386" class="st6" />
   <rect x="34.5718" y="183.544" width="10.2266" height="9.59985" class="st2" />
   <text x="34.57" y="190.74" class="st3">
    R
    <tspan class="st5">
     3
    </tspan>
   </text>
  </g>
  <g id="shape24-59" transform="translate(99.0039,-136.563)">
   <title>Sheet.24</title>
   <desc>
    R4
   </desc>
   <rect x="0" y="182.675" width="79.3701" height="11.3386" class="st6" />
   <rect x="34.5718" y="183.544" width="10.2266" height="9.59985" class="st2" />
   <text x="34.57" y="190.74" class="st3">
    R
    <tspan class="st5">
     4
    </tspan>
   </text>
  </g>
  <g id="shape25-64" transform="translate(99.0039,-159.24)">
   <title>Sheet.25</title>
   <desc>
    R2
   </desc>
   <rect x="0" y="182.675" width="79.3701" height="11.3386" class="st6" />
   <rect x="34.5718" y="183.544" width="10.2266" height="9.59985" class="st2" />
   <text x="34.57" y="190.74" class="st3">
    R
    <tspan class="st5">
     2
    </tspan>
   </text>
  </g>
  <g id="shape26-69" transform="translate(99.0039,-68.5315)">
   <title>Sheet.26</title>
   <desc>
    R10
   </desc>
   <rect x="0" y="182.675" width="79.3701" height="11.3386" class="st6" />
   <rect x="32.3473" y="183.544" width="14.6758" height="9.59985" class="st2" />
   <text x="32.35" y="190.74" class="st3">
    R
    <tspan class="st5">
     10
    </tspan>
   </text>
  </g>
  <g id="shape27-74" transform="translate(99.0039,-57.1929)">
   <title>Sheet.27</title>
   <desc>
    R11
   </desc>
   <rect x="0" y="182.675" width="79.3701" height="11.3386" class="st6" />
   <rect x="32.3473" y="183.544" width="14.6758" height="9.59985" class="st2" />
   <text x="32.35" y="190.74" class="st3">
    R
    <tspan class="st5">
     11
    </tspan>
   </text>
  </g>
  <g id="shape28-79" transform="translate(99.0039,-45.8543)">
   <title>Sheet.28</title>
   <desc>
    R12
   </desc>
   <rect x="0" y="182.675" width="79.3701" height="11.3386" class="st6" />
   <rect x="32.3473" y="183.544" width="14.6758" height="9.59985" class="st2" />
   <text x="32.35" y="190.74" class="st3">
    R
    <tspan class="st5">
     12
    </tspan>
   </text>
  </g>
  <g id="shape29-84" transform="translate(99.0039,-91.2087)">
   <title>Sheet.29</title>
   <desc>
    R8
   </desc>
   <rect x="0" y="182.675" width="79.3701" height="11.3386" class="st6" />
   <rect x="34.5718" y="183.544" width="10.2266" height="9.59985" class="st2" />
   <text x="34.57" y="190.74" class="st3">
    R
    <tspan class="st5">
     8
    </tspan>
   </text>
  </g>
  <g id="shape30-89" transform="translate(99.0039,-79.8701)">
   <title>Sheet.30</title>
   <desc>
    R9
   </desc>
   <rect x="0" y="182.675" width="79.3701" height="11.3386" class="st6" />
   <rect x="34.5718" y="183.544" width="10.2266" height="9.59985" class="st2" />
   <text x="34.57" y="190.74" class="st3">
    R
    <tspan class="st5">
     9
    </tspan>
   </text>
  </g>
  <g id="group32-94" transform="translate(93.3346,-45.8543) scale(-1,1)">
   <title>Sheet.32</title>
   <g id="group33-95" transform="translate(2.83227,-25.5148)">
    <title>Sheet.33</title>
    <g id="shape34-96" transform="translate(-135.516,55.168) rotate(-45.4884) scale(-1,1)">
     <title>Sheet.34</title>
     <path d="M-0 194.01 A3.7602 2.77248 92.35 0 1 3.97 194.01" class="st7" />
    </g>
    <g id="shape35-99" transform="translate(-135.516,327.196) rotate(-134.512)">
     <title>Sheet.35</title>
     <path d="M-0 194.01 A3.7602 2.77248 92.35 0 1 3.97 194.01" class="st7" />
    </g>
   </g>
   <g id="shape36-102" transform="translate(139.547,328.772) rotate(-45.9937) scale(1,-1)">
    <title>Sheet.36</title>
    <path d="M-0 194.01 A3.76019 2.76821 92.33 0 1 3.96 194.01" class="st7" />
   </g>
   <g id="shape37-105" transform="translate(139.547,2.56227) rotate(45.9937)">
    <title>Sheet.37</title>
    <path d="M-0 194.01 A3.76019 2.76821 92.33 0 1 3.96 194.01" class="st7" />
   </g>
   <g id="shape38-108" transform="translate(196.846,140.183) rotate(90)">
    <title>Sheet.38</title>
    <path d="M0 194.01 L22.65 194.01" class="st7" />
   </g>
   <g id="shape39-111" transform="translate(196.846,168.499) rotate(90)">
    <title>Sheet.39</title>
    <path d="M0 194.01 L22.65 194.01" class="st7" />
   </g>
  </g>
  <g id="group40-114" transform="translate(93.3346,-102.547) scale(-1,1)">
   <title>Sheet.40</title>
   <g id="shape41-115" transform="translate(139.517,-31.4843) rotate(45.981)">
    <title>Sheet.41</title>
    <path d="M-0 194.01 A3.76019 2.7699 92.34 0 1 3.97 194.01" class="st7" />
   </g>
   <g id="group42-118" transform="translate(2.82988,-42.5216)">
    <title>Sheet.42</title>
    <g id="shape43-119" transform="translate(-135.483,55.1362) rotate(-45.4757) scale(-1,1)">
     <title>Sheet.43</title>
     <path d="M-0 194.01 A3.7602 2.77418 92.35 0 1 3.97 194.01" class="st7" />
    </g>
    <g id="shape44-122" transform="translate(-135.483,327.226) rotate(-134.524)">
     <title>Sheet.44</title>
     <path d="M-0 194.01 A3.7602 2.77418 92.35 0 1 3.97 194.01" class="st7" />
    </g>
   </g>
   <g id="shape45-125" transform="translate(196.848,106.168) rotate(90)">
    <title>Sheet.45</title>
    <path d="M0 194.01 L39.66 194.01" class="st7" />
   </g>
   <g id="shape46-128" transform="translate(139.517,328.803) rotate(-45.981) scale(1,-1)">
    <title>Sheet.46</title>
    <path d="M-0 194.01 A3.76019 2.7699 92.34 0 1 3.97 194.01" class="st7" />
   </g>
   <g id="shape47-131" transform="translate(196.848,151.492) rotate(90)">
    <title>Sheet.47</title>
    <path d="M0 194.01 L39.66 194.01" class="st7" />
   </g>
  </g>
  <g id="shape49-134" transform="translate(30.9724,-142.232)">
   <title>Sheet.49</title>
   <desc>
    low registers
   </desc>
   <rect x="0" y="182.675" width="56.6929" height="11.3386" class="st1" />
   <rect x="7.79041" y="183.544" width="44.9025" height="9.59985" class="st2" />
   <text x="7.79" y="190.74" class="st3">
    low registers
   </text>
  </g>
  <g id="shape50-138" transform="translate(30.9724,-68.5315)">
   <title>Sheet.50</title>
   <desc>
    high registers
   </desc>
   <rect x="0" y="182.675" width="56.6929" height="11.3386" class="st1" />
   <rect x="4.66946" y="183.544" width="48.0234" height="9.59985" class="st2" />
   <text x="4.67" y="190.74" class="st3">
    high registers
   </text>
  </g>
  <g id="shape51-142" transform="translate(270.5,-34.5157)">
   <title>Sheet.51</title>
   <desc>
    SP_main
   </desc>
   <rect x="0" y="182.675" width="79.3701" height="11.3386" class="st6" />
   <rect x="23.455" y="183.544" width="32.4605" height="9.59985" class="st2" />
   <text x="23.45" y="190.74" class="st3">
    SP_
    <tspan class="st5">
     main
    </tspan>
   </text>
  </g>
  <g id="shape13-147" transform="translate(185.461,-34.5157)">
   <title>Sheet.13</title>
   <desc>
    SP_process
   </desc>
   <rect x="0" y="182.675" width="79.3701" height="11.3386" class="st6" />
   <rect x="18.1187" y="183.544" width="43.1329" height="9.59985" class="st2" />
   <text x="18.12" y="190.74" class="st3">
    SP
    <tspan class="st5">
     _
    </tspan>
    <tspan class="st5">
     process
    </tspan>
   </text>
  </g>
  <g id="shape52-153" transform="translate(99.2874,-0.5)">
   <title>Sheet.52</title>
   <desc>
    xPSR
   </desc>
   <rect x="0" y="182.675" width="79.3701" height="11.3386" class="st6" />
   <text x="29.46" y="190.75" class="st8">
    x
    <tspan class="st9">
     PSR
    </tspan>
   </text>
  </g>
 </g>
</svg>